Coordinates

Units are S.I. units (second, meters, Newtons, ...)
If the header above contains a line with 'inDegrees', this indicates whether rotational values are in degrees (yes) or radians (no).

inDegrees=no
nColumns=21
nRows=15
DataType=double
version=3
OpenSimVersion=4.6-2026-03-31-d6972f9e6
endheader
time	/jointset/ground_pelvis/pelvis_tilt/value	/jointset/ground_pelvis/pelvis_list/value	/jointset/ground_pelvis/pelvis_rotation/value	/jointset/ground_pelvis/pelvis_tx/value	/jointset/ground_pelvis/pelvis_ty/value	/jointset/ground_pelvis/pelvis_tz/value	/jointset/hip_r/hip_flexion_r/value	/jointset/hip_r/hip_adduction_r/value	/jointset/hip_r/hip_rotation_r/value	/jointset/walker_knee_r/knee_angle_r/value	/jointset/patellofemoral_r/knee_angle_r_beta/value	/jointset/ankle_r/ankle_angle_r/value	/jointset/subtalar_r/subtalar_angle_r/value	/jointset/hip_l/hip_flexion_l/value	/jointset/hip_l/hip_adduction_l/value	/jointset/hip_l/hip_rotation_l/value	/jointset/walker_knee_l/knee_angle_l/value	/jointset/patellofemoral_l/knee_angle_l_beta/value	/jointset/ankle_l/ankle_angle_l/value	/jointset/subtalar_l/subtalar_angle_l/value
147.496	-0.125955190912759	0.06746081475291789	0.09897173965098544	1.120134692348986	0.9048770198577456	-0.2839593413439149	0.5440028993597065	-0.1010329704657813	0.06468470135795965	1.57115501566671	1.571155015580138	-0.1736134176998904	-0.4053304097642175	0.2466061674372124	0.09992958433029901	-0.004917639118586278	0.71973112208963	0.7197311219986569	0.3529735347629979	-0.2491248208525577
147.5	-0.125175952710174	0.06398328787615841	0.09144501579056284	1.120069334742787	0.9071947546743081	-0.2840281164382806	0.5554615752546924	-0.09626698952156602	0.06779936979737529	1.549780622333025	1.549780622283803	-0.1716964827022792	-0.4077078265605799	0.2258238017294767	0.09525314817367971	-0.005987479618156552	0.7029243875485671	0.7029243875568337	0.3389355226464335	-0.2527327077350786
147.504	-0.1242823974046152	0.05997924283500256	0.08398756821649463	1.120098859556723	0.9096664151004152	-0.2841257534341272	0.5657031964683028	-0.09090611306413607	0.07009159290846555	1.526147386325024	1.526147386326873	-0.1700356581452152	-0.4095989362584954	0.2047382617900891	0.09031637593504396	-0.006859414710825753	0.6854937821767042	0.6854937822960379	0.3227408437801043	-0.256645316512963
147.508	-0.1232965876046823	0.05545919242861042	0.07659030953724293	1.120225193384605	0.9122781669422181	-0.2842450705253665	0.5747135755007505	-0.0849578979412076	0.07162714557178729	1.500292870769391	1.500292870829754	-0.1686698750117853	-0.4110485677670201	0.1834195569223692	0.08509719982372461	-0.007646110257994498	0.6675288145088957	0.667528814745876	0.304419970164498	-0.260745012333037
147.512	-0.122241465408817	0.05044126399301835	0.06924397845580127	1.120449872605747	0.915015260274326	-0.2843785663796226	0.5824864808430049	-0.07843334659760258	0.07248432001687422	1.472256784425902	1.472256784546816	-0.1676215929839139	-0.4120874472036099	0.1619366061512274	0.07957923141999879	-0.008469266626683057	0.6491166602431769	0.6491166605982561	0.284021548666155	-0.2649114472239741
147.516	-0.1211416520754184	0.04495148938416878	0.06194035927968065	1.120773937139989	0.9178619319390731	-0.2845187224478554	0.5890247698782306	-0.07134854837462205	0.0727517578636999	1.442081763117427	1.442081763296826	-0.1668945719756672	-0.4127291254255505	0.1403588782398011	0.07375378484216702	-0.009454572610643362	0.630343267013371	0.6303432674803556	0.2616124345087634	-0.26902690925948
147.52	-0.1200240575506692	0.03902405985364212	0.05467329049393833	1.121197827029659	0.9208013471106987	-0.2846582797927711	0.5943413141630224	-0.06372629143579722	0.07252628626742415	1.409814351904298	1.409814352137291	-0.1664725339378832	-0.4129675879039127	0.1187578484394986	0.06762164846091751	-0.01072640515821753	0.6112945024032627	0.6112945029694795	0.2372773392374721	-0.2729817922280796
147.524	-0.1189182694206898	0.03270155870851875	0.04743945476423784	1.121721283372608	0.9238155841233953	-0.2847904812540196	0.5984596948794582	-0.0555976021877218	0.07191076757347975	1.375506199209786	1.375506199489813	-0.1663188187930113	-0.412775731376984	0.09720821120422606	0.06119456669182218	-0.01240241716409798	0.592057328708023	0.5920573293552225	0.2111181852455914	-0.2766798160974667
147.528	-0.1178568038323404	0.02603516489330206	0.04023898441186723	1.122343253532715	0.9268856563608764	-0.2849092740213128	0.6014147693324114	-0.04700318181811026	0.07101193798348081	1.339215483231424	1.33921548355125	-0.166377052924213	-0.4121048187521931	0.07578893449100471	0.05449639577056055	-0.0145881618544701	0.5727210397459116	0.5727210404517081	0.1832533393027513	-0.2800424524402578
147.532	-0.1168751917035233	0.01908475981247408	0.03307587277227615	1.123061803346185	0.9299915745321998	-0.2850094667852578	0.6032530771022174	-0.03799462274757207	0.06993822188086173	1.301008551213952	1.301008551566404	-0.1665728230227632	-0.4108850066316888	0.05458410342903939	0.04756384540311245	-0.0173719835373337	0.5533785303205832	0.5533785310600623	0.1538168309882446	-0.2830121980558111
147.536	-0.1160116385096914	0.01191881503378354	0.0259581096261354	1.123874043786308	0.9331124734619856	-0.2850868342846224	0.60403277327724	-0.02863518126755807	0.06879754843046884	1.260961684685965	1.260961685064327	-0.1668163548069194	-0.4090270717229831	0.03368319521402653	0.04044668503471062	-0.02082044159118634	0.5341274274018397	0.5341274281489464	0.1229574850558309	-0.2855547955801842
147.54	-0.1153060634808909	0.004613967649775655	0.01889748255243183	1.124776078319588	0.9362268208150455	-0.2851381656797252	0.6038228481037163	-0.01899992838044891	0.06769520819986712	1.219162903120099	1.219162903518256	-0.1670061336127453	-0.4064253945255284	0.01318051002606316	0.03320734860170206	-0.02497449687685353	0.5150709295300189	0.5150709302585137	0.09083789185407438	-0.2876605640089257
147.544	-0.1147986758513264	-0.002745729506874489	0.01190908977618006	1.125762970085151	0.9393126923713673	-0.285161259884667	0.6027017988311891	-0.009175260652799186	0.06673176096131569	1.175713781339183	1.175713781751616	-0.1670332771206276	-0.402962085900425	-0.006826060252379367	0.02591996554044925	-0.02984663384970045	0.4963183848107484	0.4963183854948222	0.05763333197022607	-0.289344615483973
147.548	-0.1145284063229282	-0.01006986842791702	0.00501065781062845	1.126828724591077	0.942348083368162	-0.2851548751680031	0.6007560995543837	0.0007421747787958573	0.06600098808809868	1.130731270842966	1.130731271264521	-0.1667863931750839	-0.3985120313819634	-0.02623653449289797	0.01866888063473916	-0.03541905792066155	0.477985721569282	0.4779857221840984	0.0235308581198535	-0.2906455760728291
147.552	-0.114531376860174	-0.01726306680807661	-0.001778269055434048	1.127966286625723	0.9453112375891297	-0.2851186417016929	0.59807864560987	0.01064711670525487	0.06558788854073348	1.084349461807071	1.084349462232461	-0.1661566573209354	-0.3929486273376472	-0.04495040547609842	0.01154671335883988	-0.04164307160004204	0.4601957574139368	0.4601957579362509	-0.01127137713265837	-0.2916226963391031
